<svg xmlns="http://www.w3.org/2000/svg" xmlns:xlink="http://www.w3.org/1999/xlink" preserveAspectRatio="xMidYMid" width="701" height="387" viewBox="0 0 701 387">
  <defs>
    <style>
      .cls-1, .cls-3 {
        fill: #0e79b2;
      }

      .cls-1 {
        opacity: 0.2;
      }

      .cls-1, .cls-2, .cls-3 {
        fill-rule: evenodd;
      }

      .cls-2 {
        fill: #a31621;
      }
    </style>
  </defs>
  <path d="M411.045,39.922 L667.017,196.470 L411.045,353.016 L411.045,271.991 L411.045,226.955 L213.887,347.531 L213.887,266.506 L213.887,226.667 L17.001,347.078 L17.001,266.052 L17.001,115.010 L17.001,33.984 L213.887,154.395 L213.887,115.464 L213.887,34.438 L411.045,155.016 L411.045,120.949 L411.045,39.922 Z" class="cls-1"/>
  <path d="M427.045,39.922 L683.017,196.470 L427.045,353.016 L427.045,271.991 L427.045,226.955 L229.887,347.532 L229.887,266.506 L229.887,226.667 L33.001,347.078 L33.001,266.052 L33.001,115.010 L33.001,33.984 L229.887,154.396 L229.887,115.464 L229.887,34.438 L427.045,155.016 L427.045,120.949 L427.045,39.922 Z" class="cls-2"/>
  <path d="M230.000,230.000 L288.922,193.531 L230.000,157.000 " class="cls-3"/>
  <path d="M427.000,230.000 L485.664,193.985 L427.000,158.000 " class="cls-3"/>
</svg>
