<svg xmlns="http://www.w3.org/2000/svg" xmlns:xlink="http://www.w3.org/1999/xlink" preserveAspectRatio="xMidYMid" width="1890" height="1181" viewBox="0 0 1890 1181">
  <defs>
    <style>
      .cls-1, .cls-3 {
        fill: #0e79b2;
      }

      .cls-1 {
        opacity: 0.2;
      }

      .cls-1, .cls-2, .cls-3 {
        fill-rule: evenodd;
      }

      .cls-2 {
        fill: #a31621;
      }
    </style>
  </defs>
  <path d="M1059.045,461.922 L1315.017,618.470 L1059.045,775.016 L1059.045,693.991 L1059.045,648.955 L861.887,769.532 L861.887,688.506 L861.887,648.667 L665.001,769.078 L665.001,688.052 L665.001,537.010 L665.001,455.984 L861.887,576.396 L861.887,537.464 L861.887,456.438 L1059.045,577.016 L1059.045,542.949 L1059.045,461.922 Z" class="cls-1"/>
  <path d="M1075.045,427.922 L1331.017,584.470 L1075.045,741.016 L1075.045,659.991 L1075.045,614.955 L877.887,735.532 L877.887,654.506 L877.887,614.667 L681.001,735.078 L681.001,654.052 L681.001,503.010 L681.001,421.984 L877.887,542.396 L877.887,503.464 L877.887,422.438 L1075.045,543.016 L1075.045,508.949 L1075.045,427.922 Z" class="cls-2"/>
  <path d="M878.000,615.000 L936.922,578.531 L878.000,542.000 " class="cls-3"/>
  <path d="M1075.000,615.000 L1133.664,578.985 L1075.000,543.000 " class="cls-3"/>
</svg>
